<?xml version="1.0" encoding="UTF-8" standalone="no"?>
<svg
   width="16px"
   height="16px"
   viewBox="0 0 16 16"
   version="1.1"
   id="svg1"
   sodipodi:docname="container-site.svg"
   inkscape:version="1.3 (1:1.3+202307231459+0e150ed6c4)"
   xmlns:inkscape="http://www.inkscape.org/namespaces/inkscape"
   xmlns:sodipodi="http://sodipodi.sourceforge.net/DTD/sodipodi-0.dtd"
   xmlns:xlink="http://www.w3.org/1999/xlink"
   xmlns="http://www.w3.org/2000/svg"
   xmlns:svg="http://www.w3.org/2000/svg">
  <defs
     id="defs1">
    <linearGradient
       id="linearGradient13"
       inkscape:collect="always">
      <stop
         style="stop-color:#ffffff;stop-opacity:1;"
         offset="1"
         id="stop12" />
      <stop
         style="stop-color:#0734ff;stop-opacity:1;"
         offset="1"
         id="stop13" />
    </linearGradient>
    <linearGradient
       id="linearGradient11"
       inkscape:collect="always">
      <stop
         style="stop-color:#ffffff;stop-opacity:1;"
         offset="1"
         id="stop10" />
      <stop
         style="stop-color:#0734ff;stop-opacity:1;"
         offset="1"
         id="stop11" />
    </linearGradient>
    <linearGradient
       id="linearGradient8"
       inkscape:collect="always">
      <stop
         style="stop-color:#75d2ff;stop-opacity:1;"
         offset="0.37288135"
         id="stop9" />
      <stop
         style="stop-color:#0734ff;stop-opacity:1;"
         offset="1"
         id="stop8" />
    </linearGradient>
    <radialGradient
       inkscape:collect="always"
       xlink:href="#linearGradient8"
       id="radialGradient1"
       gradientUnits="userSpaceOnUse"
       gradientTransform="matrix(-1.9852441,1.9850835,-1.8933486,-1.8933486,668.70719,-699.07537)"
       cx="340.47287"
       cy="-12.277611"
       fx="340.47287"
       fy="-12.277611"
       r="8" />
    <radialGradient
       inkscape:collect="always"
       xlink:href="#linearGradient13"
       id="radialGradient6"
       gradientUnits="userSpaceOnUse"
       gradientTransform="matrix(-1.9852441,1.9850835,-1.8933486,-1.8933486,668.70719,-699.07537)"
       cx="340.47287"
       cy="-12.277611"
       fx="340.47287"
       fy="-12.277611"
       r="8" />
    <radialGradient
       inkscape:collect="always"
       xlink:href="#linearGradient11"
       id="radialGradient8"
       gradientUnits="userSpaceOnUse"
       gradientTransform="matrix(-1.9852441,1.9850835,-1.8933486,-1.8933486,668.70719,-699.07537)"
       cx="340.47287"
       cy="-12.277611"
       fx="340.47287"
       fy="-12.277611"
       r="8" />
  </defs>
  <sodipodi:namedview
     id="namedview1"
     pagecolor="#ffffff"
     bordercolor="#000000"
     borderopacity="0.25"
     inkscape:showpageshadow="2"
     inkscape:pageopacity="0.0"
     inkscape:pagecheckerboard="0"
     inkscape:deskcolor="#d1d1d1"
     inkscape:zoom="22.627417"
     inkscape:cx="0.70710678"
     inkscape:cy="8.3747959"
     inkscape:window-width="1920"
     inkscape:window-height="1019"
     inkscape:window-x="0"
     inkscape:window-y="0"
     inkscape:window-maximized="1"
     inkscape:current-layer="page-1" />
  <g
     id="page-1"
     stroke="none"
     stroke-width="1"
     fill="none"
     fill-rule="evenodd">
    <path
       id="window"
       style="display:inline;fill:url(#radialGradient1);fill-opacity:1"
       inkscape:label="window"
       d="M 12,0 C 10.895432,0 10,0.8954316 10,2 V 3 H 5 C 5,1.8954316 4.1045689,1 3,1 H 2 C 0.8954321,1 0,1.8954316 0,3 v 1 10 c 0,1.104569 0.8954316,2 2,2 h 12 c 1.104569,0 2,-0.895431 2,-2 V 3 2 C 16,0.8954316 15.104569,0 14,0 Z" />
    <path
       d="m 10.640717,10.027324 c -0.135389,-0.04571 -0.268045,-0.033895 -0.398168,0.03413 -0.130123,0.06803 -0.216786,0.176004 -0.2598476,0.323694 C 9.8473984,10.839524 9.596715,11.207286 9.2309928,11.488284 8.8654413,11.769371 8.455007,11.90999 7.9999175,11.90999 7.544942,11.90999 7.13465,11.769282 6.7689277,11.488284 6.4032908,11.207199 6.1527497,10.839526 6.0173044,10.38515 5.9740154,10.23749 5.8886328,10.129483 5.7613842,10.061456 5.6340787,9.9934593 5.5027602,9.9816143 5.3673149,10.027324 c -0.1408528,0.04535 -0.2437389,0.1348 -0.3088005,0.268138 -0.065005,0.133338 -0.075877,0.271391 -0.032474,0.413113 0.2003361,0.687368 0.5741412,1.24098 1.1212731,1.661253 C 6.6945025,12.790102 7.3120466,13 8.0000029,13 c 0.687871,0 1.3055858,-0.209898 1.8527462,-0.630172 0.5467899,-0.420482 0.9206239,-0.973885 1.1210459,-1.661253 0.04363,-0.141722 0.03273,-0.279775 -0.03233,-0.413113 -0.06526,-0.133338 -0.165557,-0.222549 -0.300746,-0.268138 z"
       id="smile"
       fill-rule="nonzero"
       style="fill:#ffffff;fill-opacity:0.98877001" />
    <path
       d="M 10.000109,7 C 9.7240691,7 9.4883034,7.0977125 9.2929766,7.293028 9.0978413,7.4883708 9,7.7239643 9,8 9,8.2760357 9.0978413,8.5117386 9.2929766,8.706972 9.4883034,8.9022602 9.7240691,9 10.000109,9 10.275931,9 10.511697,8.9021507 10.707023,8.706972 10.90235,8.5117386 11,8.2760357 11,8 11,7.723937 10.90235,7.4883435 10.707023,7.293028 10.511697,7.0977125 10.275931,7 10.000109,7 Z"
       id="eye-2"
       fill-rule="nonzero"
       style="display:none;fill:url(#radialGradient6);fill-opacity:1" />
    <path
       id="rect8"
       style="fill:#ffffff;fill-opacity:0.98877001;stroke-width:58.5865"
       d="m 5.30625,9.3 c -0.2769999,0 -0.5,-0.224613 -0.5,-0.5036166 V 7.1536167 C 4.80625,6.8746131 5.0292501,6.65 5.30625,6.65 c 0.277,0 0.5,0.2246131 0.5,0.5036167 V 8.7963834 C 5.80625,9.075387 5.58325,9.3 5.30625,9.3 Z" />
    <path
       id="path12"
       style="fill:url(#radialGradient8);fill-opacity:1;stroke-width:58.5865"
       d="m 3.98125,7.975 c 0,-0.2769999 0.224613,-0.5 0.5036166,-0.5 h 1.6427667 c 0.2790036,0 0.5036167,0.2230001 0.5036167,0.5 0,0.277 -0.2246131,0.5 -0.5036167,0.5 H 4.4848666 C 4.205863,8.475 3.98125,8.252 3.98125,7.975 Z" />
    <path
       id="path12-2"
       style="display:inline;fill:#ffffff;fill-opacity:0.98877001;stroke-width:58.5865"
       d="m 9.36875,7.975 c 0,-0.277 0.224613,-0.5 0.503617,-0.5 h 1.642766 c 0.279004,0 0.503617,0.223 0.503617,0.5 0,0.277 -0.224613,0.5 -0.503617,0.5 H 9.872367 C 9.593363,8.475 9.36875,8.252 9.36875,7.975 Z" />
  </g>
</svg>
