<?xml version="1.0" encoding="UTF-8" standalone="no"?>
<svg
   width="16px"
   height="16px"
   viewBox="0 0 16 16"
   version="1.1"
   id="svg1"
   sodipodi:docname="container-site.svg"
   inkscape:version="1.3 (1:1.3+202307231459+0e150ed6c4)"
   xmlns:inkscape="http://www.inkscape.org/namespaces/inkscape"
   xmlns:sodipodi="http://sodipodi.sourceforge.net/DTD/sodipodi-0.dtd"
   xmlns:xlink="http://www.w3.org/1999/xlink"
   xmlns="http://www.w3.org/2000/svg"
   xmlns:svg="http://www.w3.org/2000/svg">
  <defs
     id="defs1">
    <linearGradient
       id="linearGradient8"
       inkscape:collect="always">
      <stop
         style="stop-color:#0734ff;stop-opacity:1;"
         offset="0"
         id="stop8" />
      <stop
         style="stop-color:#75d2ff;stop-opacity:1;"
         offset="1"
         id="stop9" />
    </linearGradient>
    <linearGradient
       inkscape:collect="always"
       xlink:href="#linearGradient8"
       id="linearGradient9"
       x1="0.078431383"
       y1="15.568627"
       x2="15.019608"
       y2="1.6470588"
       gradientUnits="userSpaceOnUse" />
  </defs>
  <sodipodi:namedview
     id="namedview1"
     pagecolor="#ffffff"
     bordercolor="#000000"
     borderopacity="0.25"
     inkscape:showpageshadow="2"
     inkscape:pageopacity="0.0"
     inkscape:pagecheckerboard="0"
     inkscape:deskcolor="#d1d1d1"
     inkscape:zoom="25.5"
     inkscape:cx="8.4705882"
     inkscape:cy="8.9411765"
     inkscape:window-width="1920"
     inkscape:window-height="1020"
     inkscape:window-x="0"
     inkscape:window-y="0"
     inkscape:window-maximized="1"
     inkscape:current-layer="page-1" />
  <g
     id="page-1"
     stroke="none"
     stroke-width="1"
     fill="none"
     fill-rule="evenodd">
    <g
       id="artboard"
       fill="#4D4D4D">
      <g
         id="group"
         inkscape:label="group"
         style="fill-opacity:1;fill:url(#linearGradient9)">
        <path
           d="m 1,4 v 10 c 0,0.552285 0.4477152,1 1,1 h 12 c 0.552285,0 1,-0.447715 1,-1 V 4 Z M 0,3 h 16 v 11 c 0,1.10457 -0.89543,2 -2,2 H 2 C 0.8954305,16 0,15.10457 0,14 Z"
           id="window"
           fill-rule="nonzero"
           inkscape:label="window"
           style="display:inline;fill-opacity:1.0;fill:url(#linearGradient9)" />
        <path
           d="M 2,0 H 4 C 5.1045695,0 6,0.8954305 6,2 V 4 H 0 V 2 C 0,0.8954305 0.8954305,0 2,0 Z"
           id="tab-0"
           fill-rule="nonzero"
           sodipodi:nodetypes="sssccss"
           style="fill-opacity:1.0;fill:url(#linearGradient9)" />
        <path
           d="M10,3 C10,2.44771525 9.55228475,2 9,2 L8,2 C7.44771525,2 7,2.44771525 7,3 L10,3 Z M8,1 L9,1 C10.1045695,1 11,1.8954305 11,3 L11,4 L6,4 L6,3 C6,1.8954305 6.8954305,1 8,1 Z"
           id="tab-1"
           fill-rule="nonzero"
           style="fill-opacity:1.0;fill:url(#linearGradient9)" />
        <path
           d="M15,3 C15,2.44771525 14.5522847,2 14,2 L13,2 C12.4477153,2 12,2.44771525 12,3 L15,3 Z M13,1 L14,1 C15.1045695,1 16,1.8954305 16,3 L16,4 L11,4 L11,3 C11,1.8954305 11.8954305,1 13,1 Z"
           id="tab-2"
           fill-rule="nonzero"
           style="fill-opacity:1.0;fill:url(#linearGradient9)" />
        <path
           d="M10.6407169,10.0273235 C10.5053285,9.98161431 10.3726724,9.99342947 10.2425492,10.0614562 C10.1124261,10.1294828 10.0257627,10.2374603 9.98270143,10.3851498 C9.84739842,10.8395263 9.59671502,11.2072881 9.23099276,11.488286 C8.86544126,11.7693734 8.45500696,11.9099918 7.99991755,11.9099918 C7.54494198,11.9099918 7.13464998,11.7692839 6.76892772,11.488286 C6.40329084,11.2071985 6.15274974,10.8395263 6.01730443,10.3851498 C5.97401544,10.2374901 5.88863281,10.1294828 5.76138423,10.0614562 C5.63407873,9.99345931 5.50276025,9.98161431 5.36731493,10.0273235 C5.22646206,10.0726746 5.12357599,10.1621237 5.05851442,10.295462 C4.99350978,10.4288002 4.98263773,10.5668526 5.02604056,10.7085749 C5.22637667,11.3959428 5.60018183,11.9495546 6.14731372,12.3698283 C6.69450253,12.7901019 7.31204662,13 8.00000293,13 C8.68787386,13 9.30558872,12.7901019 9.85274907,12.3698283 C10.3995394,11.9493458 10.773373,11.3959428 10.9737945,10.7085749 C11.0174251,10.5668526 11.0065245,10.4288002 10.941463,10.295462 C10.8762022,10.1621237 10.7759061,10.0729133 10.6407169,10.0273235 Z"
           id="smile"
           fill-rule="nonzero"
           style="fill-opacity:1.0;fill:url(#linearGradient9)" />
        <path
           d="M6.00002736,9 C6.27598096,9 6.51168391,8.90215071 6.7069994,8.70697204 C6.90234225,8.51173863 7,8.27603568 7,8 C7,7.72393696 6.90234225,7.48834346 6.7069994,7.29302796 C6.51165654,7.09771247 6.27598096,7 6.00002736,7 C5.72399168,7 5.48828873,7.09771247 5.29297324,7.29302796 C5.09773983,7.48837082 5,7.72396432 5,8 C5,8.27603568 5.09763038,8.51173863 5.29297324,8.70697204 C5.48837082,8.9022328 5.72396432,9 6.00002736,9 Z"
           id="eye-1"
           fill-rule="nonzero"
           style="fill-opacity:1.0;fill:url(#linearGradient9)" />
        <path
           d="M10.0001094,7 C9.72406906,7 9.48830337,7.09771247 9.29297655,7.29302796 C9.09784125,7.48837082 9,7.72396432 9,8 C9,8.27603568 9.09784125,8.51173863 9.29297655,8.70697204 C9.48830337,8.90226017 9.72406906,9 10.0001094,9 C10.2759309,9 10.5116966,8.90215071 10.7070234,8.70697204 C10.9023503,8.51173863 11,8.27603568 11,8 C11,7.72393696 10.9023503,7.48834346 10.7070234,7.29302796 C10.5116966,7.09771247 10.2759309,7 10.0001094,7 Z"
           id="eye-2"
           fill-rule="nonzero"
           style="fill-opacity:1.0;fill:url(#linearGradient9)" />
      </g>
    </g>
  </g>
</svg>
